<?xml version="1.0" standalone="no"?><!DOCTYPE svg PUBLIC "-//W3C//DTD SVG 1.1//EN" "http://www.w3.org/Graphics/SVG/1.1/DTD/svg11.dtd"><svg t="1693528978427" class="icon" viewBox="0 0 1024 1024" version="1.1" xmlns="http://www.w3.org/2000/svg" p-id="4095" xmlns:xlink="http://www.w3.org/1999/xlink" width="200" height="200"><path d="M511.471975 195.609705c52.00534 0 94.318967-42.318743 94.318967-94.325107 0-51.998177-42.313627-94.304641-94.318967-94.30464-51.993061 0-94.304641 42.30544-94.304641 94.30464-0.001023 52.006364 42.31158 94.325107 94.304641 94.325107z m0-125.238102c17.048247 0 30.898669 13.871911 30.898669 30.912995 0 17.04927-13.850422 30.934485-30.898669 30.934485-17.04927 0-30.914018-13.885214-30.914018-30.934485 0-17.041084 13.864748-30.912995 30.914018-30.912995zM877.050454 844.981125h-31.406228V574.708079c0-183.979854-149.664372-333.650366-333.637063-333.650366-183.987017 0-333.650366 149.670512-333.650366 333.650366v270.273046h-31.406227c-17.513851 0-31.701963 14.174809-31.701963 31.68866s14.188112 31.701963 31.701963 31.701962H375.419595c14.427565 62.150378 70.124987 108.648295 136.587568 108.648295s122.161027-46.496894 136.575289-108.648295h228.468002c17.512827 0 31.701963-14.188112 31.701962-31.701962s-14.189135-31.68866-31.701962-31.68866zM512.00614 953.62942c-31.124819 0-57.993716-18.584227-70.083032-45.243347h140.16811c-12.090339 26.658096-38.945933 45.243347-70.085078 45.243347zM241.74742 798.836247h333.228764c11.665667 0 21.134301-9.453284 21.134301-21.120997s-9.468633-21.134301-21.134301-21.134301h-333.228764V574.708079c0-149.029924 121.22982-270.259743 270.25872-270.259744 149.016621 0 270.24644 121.22982 270.24644 270.259744v181.87287h-81.622832c-11.681017 0-21.135324 9.46761-21.135324 21.134301s9.454307 21.120998 21.135324 21.120997h81.622832v46.144878H241.74742v-46.144878z" fill="#474747" p-id="4096"></path></svg>