<?xml version="1.0" standalone="no"?><!DOCTYPE svg PUBLIC "-//W3C//DTD SVG 1.1//EN" "http://www.w3.org/Graphics/SVG/1.1/DTD/svg11.dtd"><svg t="1693472411015" class="icon" viewBox="0 0 1024 1024" version="1.1" xmlns="http://www.w3.org/2000/svg" p-id="2584" xmlns:xlink="http://www.w3.org/1999/xlink" width="200" height="200"><path d="M512 170.666667C323.477333 170.666667 170.666667 323.477333 170.666667 512s152.810667 341.333333 341.333333 341.333333 341.333333-152.810667 341.333333-341.333333S700.522667 170.666667 512 170.666667zM85.333333 512C85.333333 276.352 276.352 85.333333 512 85.333333s426.666667 191.018667 426.666667 426.666667-191.018667 426.666667-426.666667 426.666667S85.333333 747.648 85.333333 512z" fill="#000000" p-id="2585"></path><path d="M693.013333 330.986667a42.666667 42.666667 0 0 1 10.304 43.648l-75.413333 226.282666a42.666667 42.666667 0 0 1-26.986667 26.986667l-226.282666 75.413333a42.666667 42.666667 0 0 1-53.973334-53.973333l75.434667-226.261333a42.666667 42.666667 0 0 1 26.986667-26.986667l226.282666-75.413333a42.666667 42.666667 0 0 1 43.648 10.304z m-222.72 139.306666l-41.685333 125.098667 125.077333-41.706667 41.706667-125.077333-125.077333 41.706667z" fill="#000000" p-id="2586"></path></svg>