<?xml version="1.0" standalone="no"?><!DOCTYPE svg PUBLIC "-//W3C//DTD SVG 1.1//EN" "http://www.w3.org/Graphics/SVG/1.1/DTD/svg11.dtd"><svg class="icon" width="200px" height="200.00px" viewBox="0 0 1024 1024" version="1.1" xmlns="http://www.w3.org/2000/svg"><path d="M752.9 58.4c31.1 0 61.4 6.7 90.1 20.1 30 13.9 57 34.4 80.3 61 23.5 26.9 41.7 58.2 54.2 93.3 12.1 34.1 18.2 70.1 18.2 107.1s-6.1 73-18.2 107.1c-12.3 34.8-30.4 65.9-53.6 92.6l-410.6 415-410.6-415c-23.2-26.7-41.3-57.9-53.6-92.6-12.1-34.1-18.2-70.1-18.2-107.1s6.1-73 18.2-107.1c12.4-35 30.7-66.4 54.2-93.3 23.3-26.6 50.3-47.1 80.3-61 28.7-13.3 59-20.1 90.1-20.1 31.1 0 61.4 6.7 90.1 20.1 30 13.9 57 34.4 80.3 61l47.9 54.8 21.4 24.4 21.4-24.4 47.9-54.8c23.3-26.6 50.3-47.1 80.3-61 28.5-13.4 58.8-20.1 89.9-20.1m0-28.4c-69.4 0-138.8 30.2-191.7 90.7l-47.9 54.8-47.9-54.8C412.3 60.2 343 30 273.6 30S134.8 60.2 81.8 120.7c-105.9 121-105.9 317.1 0 438l431.4 436 431.4-436c105.9-121 105.9-317.1 0-438C891.7 60.2 822.3 30 752.9 30z"  /><path d="M885.4 420c-3 0-6.1-1-8.7-3-6.2-4.8-7.3-13.7-2.5-19.9 5.3-6.7 6.3-9.1 8.3-13.7 1-2.3 2.2-5 3.9-8.4 3.5-7 12-9.8 19.1-6.3 7 3.5 9.8 12.1 6.3 19.1-1.4 2.8-2.4 5-3.2 7-2.4 5.5-4.5 10.3-11.9 19.8-2.9 3.5-7 5.4-11.3 5.4zM921.3 342.1h-1c-7.8-0.6-13.7-7.3-13.1-15.1 3.8-53.8-13.1-106.3-46.3-144.3-32.1-36.6-76.4-55.8-121.3-52.2-8.2 0.5-14.6-5.3-15.2-13.1-0.6-7.8 5.2-14.6 13.1-15.2 54.1-4.1 106.8 18.4 144.8 61.8 38.1 43.6 57.5 103.7 53.2 165-0.6 7.4-6.8 13.1-14.2 13.1z"  /></svg>