<svg xmlns="http://www.w3.org/2000/svg" xmlns:xlink="http://www.w3.org/1999/xlink" width="70.004150390625" height="66.2235107421875" viewBox="0 0 70.004150390625 66.2235107421875" fill="none"><g opacity="1"  transform="translate(0.00335693359375 0.000396728515625)  rotate(0)"><g opacity="1"  transform="translate(0 0)  rotate(0)"><path id="Vector" fill-rule="evenodd" fill="url(#linear_0)" opacity="1" d="M53.35 55.1C53.36 55.09 53.36 55.09 53.36 55.08C53.38 55.03 53.39 54.98 53.41 54.93C53.43 54.89 53.44 54.85 53.46 54.78C53.48 54.72 53.5 54.65 53.52 54.57C53.55 54.51 53.57 54.44 53.6 54.36C53.6 54.33 53.61 54.3 53.62 54.28C53.68 54.08 53.74 53.87 53.81 53.65C53.81 53.63 53.82 53.6 53.83 53.58C53.85 53.5 53.87 53.42 53.89 53.34C53.92 53.26 53.94 53.17 53.97 53.08C53.98 53.05 53.99 53.02 54 52.98C54.12 52.54 54.25 52.05 54.38 51.52C54.41 51.42 54.43 51.31 54.46 51.19C54.53 50.9 54.6 50.6 54.67 50.28C54.71 50.08 54.75 49.88 54.79 49.67C54.84 49.46 54.88 49.25 54.92 49.03C54.96 48.89 54.98 48.75 55.01 48.6C55.01 48.57 55.02 48.54 55.03 48.51C55.04 48.42 55.06 48.33 55.08 48.23C55.12 47.96 55.16 47.69 55.21 47.4C55.24 47.27 55.26 47.13 55.28 46.99C55.32 46.75 55.35 46.52 55.38 46.28C55.41 46.08 55.44 45.88 55.46 45.67C55.48 45.55 55.49 45.42 55.51 45.3C55.55 44.94 55.59 44.58 55.62 44.22C55.63 44.19 55.63 44.14 55.64 44.1C55.68 43.7 55.71 43.28 55.74 42.85C55.74 42.82 55.75 42.8 55.74 42.77C55.75 42.63 55.76 42.5 55.77 42.35C55.78 42.24 55.78 42.13 55.78 42.01C55.8 41.83 55.81 41.63 55.81 41.44C55.82 41.31 55.82 41.18 55.82 41.05C55.82 40.92 55.83 40.79 55.83 40.65C55.94 35.03 54.96 28.64 51.42 23C51.33 23.33 51.24 23.68 51.13 24.05C51.01 24.51 50.87 25 50.71 25.5C50.71 25.52 50.7 25.53 50.7 25.54L50.69 25.54C50.69 25.56 50.68 25.57 50.68 25.59C50.68 25.61 50.68 25.63 50.67 25.66C50.66 25.69 50.65 25.71 50.64 25.74C48.28 33.16 42.81 44.37 31.04 45.75C30.04 45.87 29.03 45.92 28.03 45.89C27.37 45.88 26.69 45.83 25.99 45.75C25.74 45.73 25.48 45.7 25.22 45.66C25.2 45.66 25.19 45.66 25.17 45.65C25.01 45.63 24.86 45.61 24.7 45.58C24.68 45.58 24.65 45.58 24.63 45.57C24.01 45.47 23.37 45.34 22.71 45.19C22.34 45.11 21.96 45.01 21.58 44.91C21.58 44.91 21.58 44.91 21.57 44.91C21.57 44.91 21.56 44.9 21.56 44.9C20.79 44.69 19.99 44.44 19.18 44.16C18.78 44.02 18.37 43.87 17.95 43.71C17.62 43.59 17.29 43.45 16.95 43.32C15.13 42.56 13.36 41.7 11.64 40.75L11.13 40.46C10.97 40.37 10.8 40.28 10.64 40.18C10.4 40.04 10.17 39.91 9.93001 39.76C9.81001 39.7 9.7 39.63 9.59 39.56C9.34 39.41 9.09 39.27 8.85001 39.11C8.72001 39.04 8.60001 38.97 8.48001 38.88L8.43001 38.86C8.42 38.85 8.41 38.84 8.40001 38.84C8.26 38.75 8.13 38.67 8.01 38.59C7.47001 38.25 6.93001 37.89 6.38 37.53L10.01 43.81L16.9 55.76C18.54 58.63 20.84 61.07 23.61 62.87C23.63 62.88 23.64 62.89 23.66 62.9C28.23 65.83 33.75 66.88 39.07 65.82C44.39 64.76 49.09 61.68 52.19 57.22L52.2 57.2C52.53 56.74 52.83 56.25 53.12 55.76C53.12 55.75 53.12 55.74 53.13 55.74C53.15 55.7 53.18 55.6 53.23 55.45C53.25 55.4 53.27 55.34 53.29 55.28C53.31 55.22 53.33 55.17 53.35 55.1Z"></path><path id="Vector" fill-rule="evenodd" fill="url(#linear_1)" opacity="1" d="M8.41 38.83C8.42 38.83 8.43 38.84 8.44 38.85L8.49 38.87C8.61 38.96 8.73 39.03 8.86 39.1C9.1 39.26 9.35 39.4 9.6 39.55C9.71 39.62 9.82 39.69 9.93 39.75C10.18 39.89 10.41 40.03 10.64 40.17C10.81 40.26 10.97 40.36 11.14 40.45L11.65 40.74C13.37 41.69 15.14 42.55 16.96 43.31C17.3 43.44 17.63 43.58 17.96 43.7C18.38 43.86 18.79 44.01 19.19 44.15C20 44.44 20.8 44.68 21.57 44.89C21.57 44.89 21.58 44.9 21.58 44.9C21.59 44.9 21.59 44.9 21.59 44.9C21.97 45 22.35 45.09 22.72 45.18C23.38 45.33 24.02 45.46 24.64 45.56C24.66 45.57 24.69 45.57 24.71 45.57C24.87 45.6 25.02 45.62 25.18 45.64C25.2 45.65 25.21 45.65 25.23 45.65C25.49 45.69 25.75 45.72 26 45.74C26.7 45.82 27.38 45.86 28.04 45.88C27.72 45.62 27.4 45.35 27.07 45.07C26.92 44.95 26.78 44.83 26.64 44.71L26.63 44.7C26.62 44.69 26.63 44.69 26.62 44.68C26.62 44.67 26.61 44.67 26.6 44.66C26.58 44.65 26.57 44.63 26.56 44.62C18.63 37.68 8.92 24.55 24 9.55999C24 9.54999 24.01 9.54999 24.02 9.53999C24.19 9.36999 24.36 9.19999 24.55 9.01999C24.65 8.91999 24.76 8.81999 24.87 8.71999L24.88 8.71999C24.95 8.63999 25.03 8.56999 25.1 8.49999C20.74 7.89999 16.33 7.62999 11.92 7.68999C11.63 7.68999 11.34 7.68999 11.05 7.69999C10.61 7.69999 10.16 7.70999 9.71 7.72999C9.18 7.73999 8.64 7.75999 8.1 7.78999C8.06 7.77999 8.01 7.78999 7.97 7.78999C7.58 7.79999 7.19 7.81999 6.8 7.83999C6.76 7.83999 6.72 7.83999 6.68 7.84999C6.62 7.84999 6.56 7.84999 6.51 7.85999C6.48 7.85999 6.45 7.85999 6.42 7.86999C6.41 7.85999 6.41 7.85999 6.4 7.86999C6.23 7.86999 6.05 7.87999 5.86 7.89999C5.42 7.91999 4.96 7.94999 4.51 7.97999C1.91 11.26 0.35 15.24 0.05 19.42C-0.25 23.59 0.72 27.76 2.83 31.37L5.21 35.49C5.22 35.5 5.22 35.5 5.22 35.51C5.23 35.51 5.23 35.52 5.23 35.53C5.24 35.53 5.24 35.54 5.24 35.54L6.39 37.52C6.93 37.88 7.47 38.24 8.01 38.57C8.14 38.66 8.27 38.74 8.41 38.83Z"></path><path id="Vector" fill-rule="evenodd" fill="url(#linear_2)" opacity="1" d="M7.97001 7.8C8.01001 7.79 8.06001 7.79 8.10001 7.79C8.64001 7.76 9.18001 7.75 9.71001 7.73C10.16 7.72 10.61 7.71 11.05 7.7C11.34 7.69 11.63 7.69 11.92 7.69C16.33 7.63 20.73 7.9 25.1 8.5C38.61 10.46 46.44 15.73 50.81 22.08C50.81 22.08 50.83 22.1 50.86 22.14C50.88 22.17 50.9 22.2 50.93 22.23C51.09 22.48 51.26 22.74 51.42 22.99C54.97 28.63 55.95 35.02 55.84 40.65C55.84 40.78 55.83 40.91 55.83 41.04C55.83 41.17 55.83 41.3 55.82 41.43C55.82 41.63 55.81 41.82 55.79 42C55.79 42.12 55.79 42.23 55.78 42.34C55.77 42.49 55.76 42.62 55.75 42.76C55.75 42.79 55.75 42.82 55.74 42.84C55.72 43.27 55.69 43.69 55.65 44.1C55.64 44.14 55.64 44.18 55.63 44.21C55.62 44.29 55.62 44.37 55.62 44.44L55.52 45.29C55.5 45.42 55.49 45.54 55.47 45.66C55.45 45.87 55.42 46.07 55.39 46.27C55.36 46.51 55.33 46.74 55.29 46.98C55.27 47.12 55.25 47.26 55.22 47.4C55.17 47.68 55.13 47.95 55.09 48.22C55.07 48.32 55.05 48.41 55.04 48.5C55.03 48.53 55.02 48.56 55.02 48.59C54.99 48.74 54.96 48.88 54.93 49.02C54.89 49.24 54.84 49.45 54.8 49.66C54.76 49.87 54.72 50.07 54.67 50.28C54.61 50.59 54.54 50.89 54.47 51.18C54.44 51.3 54.42 51.41 54.39 51.51C54.26 52.05 54.13 52.53 54.01 52.97C54 53.01 53.99 53.04 53.98 53.08C53.95 53.16 53.92 53.25 53.9 53.33C53.89 53.41 53.86 53.49 53.84 53.57C53.83 53.59 53.82 53.62 53.82 53.64C53.75 53.86 53.69 54.07 53.63 54.27C53.62 54.29 53.61 54.32 53.6 54.35C53.58 54.43 53.56 54.49 53.53 54.56C53.51 54.64 53.48 54.72 53.47 54.77C53.45 54.83 53.44 54.87 53.42 54.93C53.4 54.98 53.39 55.02 53.37 55.07C53.37 55.08 53.37 55.08 53.36 55.09C53.34 55.16 53.32 55.21 53.3 55.27C53.28 55.34 53.26 55.39 53.24 55.44C53.19 55.59 53.15 55.69 53.14 55.73L60.87 42.33L66.15 33.18C66.15 33.18 66.17 33.15 66.21 33.09L67.19 31.38C68.66 28.83 69.58 26 69.89 23.08C70.19 20.16 69.88 17.2 68.97 14.41C68.06 11.61 66.57 9.04 64.6 6.86C62.63 4.68 60.22 2.94 57.53 1.75C57.52 1.74 57.51 1.74 57.5 1.74C57.49 1.73 57.49 1.73 57.48 1.73C54.84 0.58 51.98 -0.01 49.09 0L20.95 0C17.78 -0.02 14.65 0.69 11.8 2.07C8.95001 3.46 6.45001 5.48 4.51001 7.98C4.96001 7.95 5.42001 7.92 5.86001 7.9C6.05001 7.88 6.22001 7.88 6.40001 7.87C6.41001 7.86 6.41001 7.86 6.42001 7.87C6.45001 7.86 6.48001 7.86 6.51001 7.86C6.56001 7.85 6.62001 7.85 6.68001 7.85C6.72001 7.85 6.76001 7.84 6.80001 7.84C7.19001 7.82 7.58001 7.8 7.97001 7.8Z"></path><g opacity="0.25"  transform="translate(50.69000244140625 25.5)  rotate(0)"><path id="Vector" fill-rule="evenodd" style="fill:#FFFFFF" opacity="0.25" d="M0.01 0.04C0.02 0.03 0.02 0.01 0.02 0C0.01 0.01 0.01 0.03 0.01 0.04C0.01 0.06 0 0.07 0 0.09C0.01 0.07 0.01 0.05 0.01 0.04Z"></path></g><g opacity="0.25"  transform="translate(8.44000244140625 25.739990234375)  rotate(0)"><path id="Vector" fill-rule="evenodd" style="fill:#FFFFFF" opacity="0.25" d="M24.99 20.4L25.63 20.21L26.92 19.83C27.34 19.68 27.74 19.49 28.14 19.33C28.94 18.99 29.72 18.59 30.46 18.14C31.19 17.69 31.89 17.2 32.56 16.66C33.21 16.14 33.82 15.58 34.41 14.98C34.69 14.69 34.98 14.41 35.24 14.11C35.51 13.82 35.76 13.5 36 13.2C36.48 12.61 36.94 12 37.36 11.36C37.79 10.76 38.13 10.13 38.5 9.54C38.85 8.93 39.14 8.34 39.44 7.77C39.71 7.19 39.97 6.63 40.21 6.1C40.42 5.55 40.63 5.04 40.82 4.55C41.16 3.58 41.46 2.73 41.67 2.01C41.9 1.3 42.03 0.73 42.12 0.35C42.15 0.21 42.19 0.09 42.21 0C39.84 7.42 34.37 18.63 22.61 20.01C21.61 20.13 20.6 20.17 19.6 20.15C19.27 19.89 18.95 19.62 18.62 19.34C17.66 19.29 16.7 19.19 15.75 19.03C14.28 18.78 12.83 18.44 11.4 18.01C10.03 17.58 8.75 17.14 7.59 16.67C5.26 15.74 3.35 14.84 2.04 14.15C0.97 13.61 0.27 13.25 0.05 13.14L0 13.12C0.06 13.16 0.22 13.28 0.47 13.45C0.8 13.67 1.25 14.03 1.88 14.43C2.5 14.84 3.27 15.31 4.15 15.85C5.04 16.37 6.06 16.95 7.22 17.51C8.45 18.12 9.72 18.67 11.02 19.14C12.48 19.68 13.97 20.11 15.49 20.42C16.2 20.56 16.93 20.68 17.66 20.77L17.67 20.77C18.61 20.88 19.55 20.94 20.49 20.93C21.37 20.93 22.24 20.86 23.11 20.73L24.36 20.52C24.57 20.48 24.77 20.45 24.99 20.4Z"></path></g><g opacity="0.25"  transform="translate(15.30999755859375 9.540008544921875)  rotate(0)"><path id="Vector" fill-rule="evenodd" style="fill:#FFFFFF" opacity="0.25" d="M3.33 5.87C3.04 6.3 2.75 6.76 2.47 7.26C1.88 8.29 1.38 9.37 0.99 10.49C0.57 11.7 0.28 12.96 0.12 14.23C-0.03 15.55 -0.04 16.89 0.1 18.21C0.27 19.52 0.56 20.82 0.98 22.08C1.39 23.28 1.91 24.45 2.54 25.56C3.11 26.6 3.75 27.58 4.47 28.52C5.09 29.36 5.77 30.16 6.49 30.93C7.56 32.07 8.7 33.13 9.92 34.11C10.35 34.46 10.72 34.72 10.96 34.89C11.16 35.04 11.28 35.14 11.32 35.16C11.31 35.15 11.32 35.15 11.31 35.14C11.3 35.14 11.3 35.14 11.29 35.12C11.27 35.11 11.26 35.09 11.25 35.08C3.32 28.14 -6.38 15.01 8.69 0.02C8.69 0.02 8.7 0.01 8.71 0C8.71 0 8.22 0.43 7.38 1.16C6.96 1.54 6.48 2.03 5.92 2.59C5.41 3.19 4.79 3.83 4.22 4.63C3.92 5.01 3.61 5.41 3.33 5.87Z"></path></g><g opacity="0.25"  transform="translate(6.41998291015625 7.3599853515625)  rotate(0)"><path id="Vector" fill-rule="evenodd" style="fill:#FFFFFF" opacity="0.25" d="M12.17 0.04C10.13 -0.03 8.09 0 6.05 0.07C4.06 0.15 2.08 0.28 0.09 0.5C0.06 0.5 0.03 0.5 0 0.51C2.02 0.51 4.04 0.52 6.05 0.58C8.08 0.64 10.1 0.78 12.12 0.94C13.79 1.08 15.46 1.27 17.11 1.51C17.45 1.56 17.79 1.61 18.13 1.67C18.23 1.56 18.34 1.46 18.45 1.36L18.46 1.36C18.53 1.28 18.61 1.22 18.68 1.14C32.19 3.1 40.02 8.37 44.4 14.72C44.4 14.72 44.41 14.74 44.45 14.78C44.64 15.06 44.83 15.35 45.01 15.63C44.92 15.96 44.83 16.32 44.73 16.68L44.84 16.87C45.18 17.42 45.49 17.99 45.77 18.58C46.04 19.17 46.35 19.75 46.58 20.35L47.26 22.18L47.81 24.07C47.98 24.7 48.09 25.34 48.24 25.98C48.4 26.63 48.45 27.29 48.57 27.93C48.69 28.57 48.71 29.24 48.79 29.89C48.87 30.54 48.89 31.2 48.92 31.86C48.97 32.52 48.96 33.18 48.96 33.84C48.98 34.51 48.93 35.16 48.91 35.83C48.9 36.5 48.84 37.16 48.79 37.82C48.57 40.48 48.16 43.12 47.56 45.72C47.58 45.69 47.59 45.65 47.59 45.62C47.79 45.01 47.98 44.42 48.16 43.8C48.36 43.16 48.49 42.5 48.66 41.85C48.8 41.2 48.97 40.55 49.08 39.89C49.19 39.22 49.34 38.57 49.42 37.9C49.64 36.57 49.78 35.22 49.85 33.88C49.89 33.2 49.92 32.52 49.92 31.85C49.92 31.17 49.93 30.5 49.89 29.82C49.84 29.14 49.82 28.45 49.73 27.78C49.64 27.12 49.6 26.43 49.47 25.77C49.35 25.1 49.24 24.42 49.09 23.75L48.57 21.77L48.06 20.27C48.06 20.26 48.06 20.25 48.05 20.25L47.91 19.83C47.67 19.18 47.37 18.57 47.09 17.94C46.81 17.32 46.5 16.7 46.15 16.11L45.64 15.2L45.1 14.36L45.09 14.36L45.05 14.3L44.17 13.09L43.17 11.86L42.1 10.7L40.98 9.61L39.79 8.59C39.39 8.26 38.96 7.95 38.55 7.63C37.7 7.03 36.83 6.45 35.93 5.93C35.48 5.66 35.02 5.42 34.56 5.18C34.1 4.94 33.64 4.69 33.17 4.48C32.22 4.04 31.27 3.65 30.3 3.28C29.33 2.94 28.35 2.58 27.36 2.31L25.87 1.88L24.36 1.53C23.37 1.27 22.34 1.13 21.34 0.93C20.32 0.77 19.31 0.61 18.29 0.49C16.26 0.24 14.22 0.11 12.17 0.04Z"></path></g><g opacity="0.15"  transform="translate(50.8599853515625 22.1400146484375)  rotate(0)"><path id="Vector" fill-rule="evenodd" style="fill:#FFFFFF" opacity="0.15" d="M4.07 26.88C3.99 27.31 3.9 27.73 3.81 28.13C3.75 28.45 3.68 28.75 3.6 29.04C3.58 29.16 3.56 29.27 3.52 29.37C3.4 29.91 3.27 30.39 3.15 30.83C3.14 30.87 3.13 30.9 3.11 30.94C3.09 31.02 3.06 31.11 3.04 31.19C3.03 31.27 3 31.35 2.98 31.43C2.97 31.45 2.96 31.48 2.96 31.5C2.89 31.72 2.82 31.93 2.77 32.13C2.76 32.15 2.75 32.18 2.74 32.21C2.72 32.29 2.7 32.35 2.67 32.42C2.65 32.5 2.62 32.58 2.61 32.63C2.59 32.69 2.57 32.73 2.56 32.79C2.54 32.84 2.53 32.88 2.51 32.93C2.51 32.94 2.51 32.94 2.5 32.95C2.48 33.02 2.45 33.07 2.44 33.13C2.42 33.2 2.4 33.25 2.38 33.3C2.33 33.45 2.29 33.55 2.28 33.59L10.01 20.19C8.48 15.04 6.33 10.11 3.61 5.49C3.61 5.48 3.61 5.47 3.6 5.47C2.51 3.58 1.31 1.75 0 0C0.19 0.28 0.39 0.56 0.56 0.85C4.11 6.49 5.09 12.88 4.98 18.5C4.98 18.64 4.97 18.77 4.97 18.9C4.97 19.03 4.96 19.16 4.96 19.29C4.96 19.49 4.95 19.68 4.93 19.86C4.93 19.98 4.92 20.09 4.92 20.2C4.91 20.35 4.9 20.48 4.89 20.62C4.89 20.65 4.89 20.67 4.88 20.7C4.86 21.13 4.83 21.55 4.79 21.96C4.77 22.07 4.76 22.18 4.76 22.3L4.66 23.15C4.64 23.28 4.63 23.4 4.61 23.52C4.59 23.73 4.56 23.93 4.53 24.13C4.5 24.37 4.47 24.6 4.43 24.84C4.41 24.98 4.39 25.12 4.36 25.25C4.32 25.54 4.27 25.82 4.22 26.08C4.21 26.18 4.19 26.27 4.18 26.36C4.17 26.39 4.16 26.42 4.16 26.45C4.13 26.6 4.1 26.74 4.07 26.88Z"></path></g><g opacity="0.15"  transform="translate(0.010009765625 7.67999267578125)  rotate(0)"><path id="Vector" fill-rule="evenodd" style="fill:#FFFFFF" opacity="0.15" d="M0.11 15.43C0.32 15.1 0.54 14.77 0.76 14.46C7.69 4.46 18.65 1.87 23.52 1.19C24.04 1.13 24.49 1.07 24.86 1.04L24.86 1.04C24.94 0.96 25.02 0.89 25.09 0.82C20.72 0.22 16.32 -0.05 11.91 0.01C11.62 0.01 11.33 0.01 11.04 0.02C10.6 0.02 10.15 0.03 9.7 0.05C9.17 0.06 8.63 0.08 8.09 0.11C8.05 0.1 8 0.11 7.96 0.11C7.58 0.12 7.18 0.14 6.79 0.16C6.75 0.16 6.71 0.16 6.67 0.17C6.61 0.17 6.55 0.17 6.5 0.18C6.47 0.18 6.44 0.18 6.41 0.19C6.4 0.18 6.4 0.18 6.39 0.19C6.22 0.19 6.04 0.2 5.85 0.22C5.41 0.24 4.95 0.27 4.5 0.3C1.13 4.58 -0.45 10.01 0.11 15.43Z"></path></g><g opacity="0.15"  transform="translate(6.3800048828125 37.529998779296875)  rotate(0)"><path id="Vector" fill-rule="evenodd" style="fill:#FFFFFF" opacity="0.15" d="M0 0L3.63 6.28C8.7 8.43 14.21 9.35 19.71 8.98L19.73 8.98C21.41 8.9 23.08 8.69 24.73 8.36L24.66 8.22C23.66 8.34 22.65 8.38 21.65 8.36C20.99 8.34 20.31 8.3 19.61 8.22C19.36 8.2 19.1 8.17 18.84 8.13C18.82 8.13 18.81 8.12 18.79 8.12C18.63 8.1 18.48 8.08 18.32 8.04C18.3 8.05 18.27 8.04 18.25 8.04C17.63 7.94 16.99 7.81 16.33 7.66C15.96 7.58 15.58 7.48 15.2 7.38C15.2 7.38 15.2 7.38 15.19 7.38C15.19 7.37 15.18 7.37 15.18 7.37C14.41 7.16 13.61 6.92 12.8 6.63C12.4 6.49 11.99 6.34 11.57 6.18C11.24 6.06 10.91 5.92 10.57 5.78C8.75 5.03 6.98 4.17 5.26 3.22L4.75 2.93C4.59 2.84 4.42 2.74 4.26 2.65C4.02 2.51 3.79 2.37 3.55 2.23C3.43 2.17 3.32 2.1 3.21 2.03C2.96 1.88 2.71 1.74 2.47 1.58C2.34 1.51 2.22 1.43 2.1 1.35L2.05 1.33C2.04 1.32 2.03 1.31 2.02 1.31C1.88 1.22 1.75 1.13 1.63 1.05C1.09 0.72 0.55 0.36 0 0Z"></path></g><g opacity="0.6"  transform="translate(50.69000244140625 25.5)  rotate(0)"><path id="Vector" fill-rule="evenodd" style="fill:#FFFFFF" opacity="0.6" d="M0.01 0.04C0.02 0.03 0.02 0.01 0.02 0C0.01 0.01 0.01 0.03 0.01 0.04C0.01 0.06 0 0.07 0 0.09C0.01 0.07 0.01 0.05 0.01 0.04Z"></path></g><g opacity="0.25"  transform="translate(0 0)  rotate(0)"><path id="Vector" fill-rule="evenodd" style="fill:#FFFFFF" opacity="0.25" d="M0.05 19.42C-0.25 23.6 0.72 27.76 2.83 31.38L5.21 35.5C5.11 35.28 4.66 34.37 3.96 32.93C3.55 32.1 3.01 31.11 2.51 29.96C1.95 28.66 1.52 27.31 1.21 25.93C1.04 25.16 0.92 24.37 0.85 23.58C0.8 23.1 0.78 22.63 0.77 22.14C0.75 21.77 0.75 21.4 0.75 21.02C0.81 19.19 1.1 17.37 1.62 15.62C2.19 13.75 3 11.97 4.05 10.33C4.59 9.48 5.2 8.67 5.86 7.9C6.51 7.15 7.21 6.45 7.97 5.81C9.47 4.49 11.17 3.4 13.01 2.59C14.79 1.81 16.67 1.28 18.6 1.01C20.43 0.79 22.4 0.82 24.21 0.75C26.02 0.71 27.74 0.64 29.32 0.57C35.66 0.34 39.88 0 39.88 0L20.95 0C17.78 -0.02 14.65 0.69 11.8 2.07C8.95 3.46 6.45 5.48 4.51 7.98L4.51 7.98C1.91 11.26 0.35 15.25 0.05 19.42Z"></path></g><g opacity="0.25"  transform="translate(57.5 1.739990234375)  rotate(0)"><path id="Vector" fill-rule="evenodd" style="fill:#FFFFFF" opacity="0.25" d="M0 0C0.09 0.06 0.56 0.39 1.33 0.89C1.83 1.22 2.32 1.58 2.78 1.97C3.08 2.19 3.37 2.42 3.64 2.67C3.93 2.94 4.23 3.21 4.54 3.51C4.7 3.65 4.86 3.8 5.01 3.95C5.17 4.1 5.31 4.28 5.46 4.46C5.77 4.79 6.08 5.14 6.41 5.5C6.69 5.89 6.99 6.28 7.3 6.69C7.61 7.1 7.9 7.53 8.16 7.97C8.72 8.89 9.23 9.83 9.69 10.8C9.89 11.31 10.09 11.83 10.29 12.34C10.51 12.85 10.6 13.4 10.77 13.93C10.85 14.19 10.95 14.46 11.01 14.72L11.17 15.54C11.29 16.08 11.38 16.62 11.43 17.17C11.48 17.72 11.54 18.25 11.58 18.79C11.58 19.32 11.59 19.85 11.59 20.38C11.59 20.89 11.55 21.4 11.49 21.91C11.46 22.4 11.4 22.89 11.31 23.38C11.17 24.28 10.97 25.16 10.72 26.03C10.6 26.44 10.48 26.83 10.38 27.2C10.25 27.57 10.1 27.92 9.97 28.25C9.69 28.92 9.5 29.49 9.28 29.96C8.87 30.89 8.65 31.44 8.65 31.44C8.65 31.44 8.67 31.41 8.71 31.35L9.69 29.64C11.16 27.09 12.08 24.27 12.39 21.34C12.69 18.42 12.38 15.46 11.47 12.67C10.56 9.87 9.07 7.3 7.1 5.12C5.13 2.94 2.72 1.2 0.03 0.01C0.02 0 0.01 0 0 0Z"></path></g><g opacity="0.6"  transform="translate(23.6199951171875 57.209991455078125)  rotate(0)"><path id="Vector" fill-rule="evenodd" style="fill:#FFFFFF" opacity="0.6" d="M4.72 7.28C4.35 7.19 4.01 7.1 3.69 7.02C3.37 6.91 3.07 6.81 2.78 6.71C2.28 6.56 1.78 6.38 1.3 6.17C0.47 5.83 0 5.65 0 5.65C0.01 5.66 0.03 5.67 0.05 5.68C4.61 8.61 10.14 9.66 15.46 8.6C20.78 7.54 25.48 4.46 28.58 0C28.5 0.08 28.14 0.42 27.6 0.97C27.45 1.12 27.28 1.3 27.09 1.48C26.89 1.65 26.67 1.83 26.45 2.04C25.95 2.49 25.42 2.92 24.88 3.31C24.58 3.52 24.28 3.76 23.95 3.98C23.62 4.21 23.27 4.41 22.92 4.63C22.23 5.11 21.41 5.45 20.62 5.88C20.22 6.08 19.78 6.23 19.35 6.4C18.92 6.59 18.48 6.75 18.03 6.88C17.57 7.02 17.13 7.19 16.66 7.3L15.26 7.6C14.8 7.72 14.31 7.75 13.84 7.83L13.13 7.93L12.42 7.97C11.95 7.98 11.48 8.05 11.02 8.04C10.55 8.03 10.1 8.03 9.64 8.02C9.18 8.01 8.75 7.93 8.3 7.9C7.88 7.88 7.45 7.83 7.03 7.75C6.21 7.6 5.42 7.48 4.72 7.28Z"></path></g></g></g><defs><linearGradient id="linear_0" x1="-1058.2997959144748%" y1="1581.500216289517%" x2="-958.3001773827461%" y2="1581.500216289517%" gradientUnits="objectBoundingBox"><stop offset="0" stop-color="#B87FD9" stop-opacity="1" /><stop offset="1" stop-color="#6D2C93" stop-opacity="1" /></linearGradient><linearGradient id="linear_1" x1="-1752.6985094927113%" y1="1825.899974493614%" x2="-1629.599485533745%" y2="1903.1271743884006%" gradientUnits="objectBoundingBox"><stop offset="0" stop-color="#B87FD9" stop-opacity="1" /><stop offset="0.23800000548362732" stop-color="#B87FD9" stop-opacity="1" /><stop offset="0.4399999976158142" stop-color="#D5B4E8" stop-opacity="1" /><stop offset="0.6290000081062317" stop-color="#5C4597" stop-opacity="1" /><stop offset="0.8100000023841858" stop-color="#933EC5" stop-opacity="1" /><stop offset="0.9829999804496765" stop-color="#009BBC" stop-opacity="1" /><stop offset="1" stop-color="#5C4597" stop-opacity="1" /></linearGradient><linearGradient id="linear_2" x1="-817.8004075674822%" y1="1297.3006198391968%" x2="-717.7997101882751%" y2="1297.3006198391968%" gradientUnits="objectBoundingBox"><stop offset="0" stop-color="#9945FF" stop-opacity="1" /><stop offset="0.032999999821186066" stop-color="#8752F3" stop-opacity="1" /><stop offset="0.15800000727176666" stop-color="#9945FF" stop-opacity="1" /><stop offset="0.2879999876022339" stop-color="#BE00C7" stop-opacity="1" /><stop offset="0.4189999997615814" stop-color="#BE00C7" stop-opacity="1" /><stop offset="0.5540000200271606" stop-color="#6747ED" stop-opacity="1" /><stop offset="0.6930000185966492" stop-color="#7D00C7" stop-opacity="0.7" /><stop offset="0.8379999995231628" stop-color="#BE00C7" stop-opacity="1" /><stop offset="1" stop-color="#933EC5" stop-opacity="1" /></linearGradient></defs></svg>