<?xml version="1.0" standalone="no"?><!DOCTYPE svg PUBLIC "-//W3C//DTD SVG 1.1//EN" "http://www.w3.org/Graphics/SVG/1.1/DTD/svg11.dtd"><svg t="1693529538069" class="icon" viewBox="0 0 1024 1024" version="1.1" xmlns="http://www.w3.org/2000/svg" p-id="8901" xmlns:xlink="http://www.w3.org/1999/xlink" width="200" height="200"><path d="M109.1 109.7h339.3V449H109.1z" fill="#FFFFFF" p-id="8902"></path><path d="M471.3 63.9H86.2c-12.7 0-22.9 10.3-22.9 22.9v385.1c0 12.7 10.3 22.9 22.9 22.9h385.1c12.7 0 22.9-10.3 22.9-22.9V86.8c0-12.6-10.3-22.9-22.9-22.9zM448.4 449H109.1V109.7h339.3V449z" fill="" p-id="8903"></path><path d="M109.1 577h339.3v339.3H109.1z" fill="#FFFFFF" p-id="8904"></path><path d="M471.3 531.2H86.2c-12.7 0-22.9 10.3-22.9 22.9v385.1c0 12.7 10.3 22.9 22.9 22.9h385.1c12.7 0 22.9-10.3 22.9-22.9V554.1c0-12.7-10.3-22.9-22.9-22.9z m-22.9 385.1H109.1V577h339.3v339.3z" fill="" p-id="8905"></path><path d="M575.6 577h339.3v339.3H575.6z" fill="#FFFFFF" p-id="8906"></path><path d="M937.8 531.2H552.7c-12.7 0-22.9 10.3-22.9 22.9v385.1c0 12.7 10.3 22.9 22.9 22.9h385.1c12.7 0 22.9-10.3 22.9-22.9V554.1c0.1-12.7-10.2-22.9-22.9-22.9z m-22.9 385.1H575.6V577h339.3v339.3z" fill="" p-id="8907"></path><path d="M575.6 449h339.3V109.7H575.6V449z m256.7-91.9c-12.7 0-22.9-10.3-22.9-22.9 0-12.7 10.3-22.9 22.9-22.9 12.7 0 22.9 10.3 22.9 22.9 0 12.6-10.3 22.9-22.9 22.9zM681.1 164.7h151.2c12.7 0 22.9 10.3 22.9 22.9v73.3c0 12.7-10.3 22.9-22.9 22.9-12.7 0-22.9-10.3-22.9-22.9v-50.4H681.1c-12.7 0-22.9-10.3-22.9-22.9 0-12.7 10.2-22.9 22.9-22.9z" fill="#FFFFFF" p-id="8908"></path><path d="M937.8 63.9H552.7c-12.7 0-22.9 10.3-22.9 22.9v385.1c0 12.7 10.3 22.9 22.9 22.9h385.1c12.7 0 22.9-10.3 22.9-22.9V86.8c0.1-12.6-10.2-22.9-22.9-22.9zM914.9 449H575.6V109.7h339.3V449z" fill="" p-id="8909"></path><path d="M681.1 210.5h128.3v50.4c0 12.7 10.3 22.9 22.9 22.9 12.7 0 22.9-10.3 22.9-22.9v-73.3c0-12.7-10.3-22.9-22.9-22.9H681.1c-12.7 0-22.9 10.3-22.9 22.9 0 12.6 10.2 22.9 22.9 22.9z" fill="" p-id="8910"></path><path d="M832.3 334.2m-22.9 0a22.9 22.9 0 1 0 45.8 0 22.9 22.9 0 1 0-45.8 0Z" fill="" p-id="8911"></path></svg>